<svg width="14" height="14" viewBox="0 0 14 14" fill="none" xmlns="http://www.w3.org/2000/svg">
<path d="M1.75 0C1.28587 0 0.840752 0.184375 0.512563 0.512563C0.184375 0.840752 0 1.28587 0 1.75L0 12.25C0 12.7141 0.184375 13.1592 0.512563 13.4874C0.840752 13.8156 1.28587 14 1.75 14H12.25C12.7141 14 13.1592 13.8156 13.4874 13.4874C13.8156 13.1592 14 12.7141 14 12.25V1.75C14 1.28587 13.8156 0.840752 13.4874 0.512563C13.1592 0.184375 12.7141 0 12.25 0L1.75 0ZM3.0625 2.1875C7.89512 2.1875 11.8125 6.10488 11.8125 10.9375C11.8125 11.1696 11.7203 11.3921 11.5562 11.5562C11.3921 11.7203 11.1696 11.8125 10.9375 11.8125C10.7054 11.8125 10.4829 11.7203 10.3188 11.5562C10.1547 11.3921 10.0625 11.1696 10.0625 10.9375C10.0625 9.08098 9.325 7.30051 8.01225 5.98775C6.69949 4.675 4.91902 3.9375 3.0625 3.9375C2.83044 3.9375 2.60788 3.84531 2.44378 3.68122C2.27969 3.51712 2.1875 3.29456 2.1875 3.0625C2.1875 2.83044 2.27969 2.60788 2.44378 2.44378C2.60788 2.27969 2.83044 2.1875 3.0625 2.1875V2.1875ZM3.0625 5.6875C4.45489 5.6875 5.79024 6.24062 6.77481 7.22519C7.75938 8.20976 8.3125 9.54511 8.3125 10.9375C8.3125 11.1696 8.22031 11.3921 8.05622 11.5562C7.89212 11.7203 7.66956 11.8125 7.4375 11.8125C7.20544 11.8125 6.98288 11.7203 6.81878 11.5562C6.65469 11.3921 6.5625 11.1696 6.5625 10.9375C6.5625 10.0092 6.19375 9.119 5.53737 8.46263C4.881 7.80625 3.99076 7.4375 3.0625 7.4375C2.83044 7.4375 2.60788 7.34531 2.44378 7.18122C2.27969 7.01712 2.1875 6.79456 2.1875 6.5625C2.1875 6.33044 2.27969 6.10788 2.44378 5.94378C2.60788 5.77969 2.83044 5.6875 3.0625 5.6875V5.6875ZM3.5 11.8125C3.1519 11.8125 2.81806 11.6742 2.57192 11.4281C2.32578 11.1819 2.1875 10.8481 2.1875 10.5C2.1875 10.1519 2.32578 9.81806 2.57192 9.57192C2.81806 9.32578 3.1519 9.1875 3.5 9.1875C3.8481 9.1875 4.18194 9.32578 4.42808 9.57192C4.67422 9.81806 4.8125 10.1519 4.8125 10.5C4.8125 10.8481 4.67422 11.1819 4.42808 11.4281C4.18194 11.6742 3.8481 11.8125 3.5 11.8125Z" fill="#404040"/>
</svg>
