<svg width="14" height="14" viewBox="0 0 14 14" fill="none" xmlns="http://www.w3.org/2000/svg">
<circle cx="7.02756" cy="6.10893" r="0.229659" fill="#404040"/>
<circle cx="7.04593" cy="4.05118" r="0.744094" fill="#404040"/>
<circle cx="7.04594" cy="1.40551" r="1.40551" fill="#404040"/>
<circle cx="6.38452" cy="6.3845" r="0.229659" fill="#404040"/>
<circle cx="4.95145" cy="4.95145" r="0.744094" fill="#404040"/>
<circle cx="3.10499" cy="3.10499" r="1.4147" fill="#404040"/>
<circle cx="6.10893" cy="7.00918" r="0.229659" fill="#404040"/>
<circle cx="4.05118" cy="6.99081" r="0.744094" fill="#404040"/>
<circle cx="1.40551" cy="6.95407" r="1.40551" fill="#404040"/>
<circle cx="7.00918" cy="7.92782" r="0.229659" fill="#404040"/>
<circle cx="6.99081" cy="9.98557" r="0.744094" fill="#404040"/>
<circle cx="6.95407" cy="12.5945" r="1.40551" fill="#404040"/>
<circle cx="6.36615" cy="7.67061" r="0.229659" fill="#404040"/>
<circle cx="4.89632" cy="9.14043" r="0.744094" fill="#404040"/>
<circle cx="3.00393" cy="10.9961" r="1.40551" fill="#404040"/>
<circle cx="7.92782" cy="6.99081" r="0.229659" fill="#404040"/>
<ellipse cx="9.98557" cy="6.92651" rx="0.744094" ry="0.753281" fill="#404040"/>
<ellipse cx="12.5945" cy="6.82547" rx="1.40551" ry="1.42388" fill="#404040"/>
<circle cx="7.67061" cy="6.36613" r="0.229659" fill="#404040"/>
<circle cx="9.14041" cy="4.89633" r="0.744094" fill="#404040"/>
<circle cx="10.9961" cy="3.00393" r="1.40551" fill="#404040"/>
<circle cx="7.67061" cy="7.67061" r="0.229659" fill="#404040"/>
<circle cx="9.14041" cy="9.14043" r="0.744094" fill="#404040"/>
<circle cx="10.9961" cy="10.9961" r="1.40551" fill="#404040"/>
</svg>
