<svg width="14" height="14" viewBox="0 0 14 14" fill="none" xmlns="http://www.w3.org/2000/svg">
<path d="M12.516 5.92317C12.5878 6.30758 12.6268 6.7095 12.6268 7.12892C12.6268 10.4096 10.4312 12.7423 7.11492 12.7423C6.36076 12.7426 5.61395 12.5942 4.91715 12.3057C4.22036 12.0172 3.58724 11.5942 3.05397 11.061C2.5207 10.5277 2.09773 9.89456 1.80923 9.19777C1.52073 8.50097 1.37236 7.75416 1.37259 7C1.37236 6.24584 1.52073 5.49903 1.80923 4.80223C2.09773 4.10544 2.5207 3.47232 3.05397 2.93905C3.58724 2.40577 4.22036 1.98281 4.91715 1.69431C5.61395 1.40581 6.36076 1.25744 7.11492 1.25767C8.66542 1.25767 9.96101 1.82817 10.955 2.7545L9.33626 4.37325V4.36917C8.73367 3.79517 7.96892 3.50058 7.11492 3.50058C5.22026 3.50058 3.68026 5.10125 3.68026 6.9965C3.68026 8.89117 5.22026 10.4953 7.11492 10.4953C8.83401 10.4953 10.0042 9.51242 10.2445 8.16258H7.11492V5.92317H12.5166H12.516Z" fill="#404040"/>
</svg>
