<svg width="12" height="12" viewBox="0 0 12 12" fill="none" xmlns="http://www.w3.org/2000/svg">
<path d="M11.6834 6.1931L6.43341 0.359765C6.21233 0.113599 5.78766 0.113599 5.56658 0.359765L0.316579 6.1931C0.241012 6.27686 0.19141 6.38078 0.173805 6.49221C0.1562 6.60364 0.171349 6.71779 0.217412 6.82077C0.310746 7.03135 0.519579 7.16668 0.749996 7.16668H1.91666V11.25C1.91666 11.4047 1.97812 11.5531 2.08752 11.6625C2.19691 11.7719 2.34529 11.8333 2.5 11.8333H4.25C4.40471 11.8333 4.55308 11.7719 4.66247 11.6625C4.77187 11.5531 4.83333 11.4047 4.83333 11.25V8.91668H7.16666V11.25C7.16666 11.4047 7.22812 11.5531 7.33752 11.6625C7.44691 11.7719 7.59529 11.8333 7.75 11.8333H9.5C9.6547 11.8333 9.80308 11.7719 9.91248 11.6625C10.0219 11.5531 10.0833 11.4047 10.0833 11.25V7.16668H11.25C11.363 7.16716 11.4736 7.13476 11.5685 7.07343C11.6634 7.0121 11.7384 6.9245 11.7843 6.82129C11.8303 6.71808 11.8452 6.60373 11.8273 6.49219C11.8094 6.38065 11.7594 6.27673 11.6834 6.1931V6.1931Z" fill="#404040"/>
</svg>
