<svg width="14" height="14" viewBox="0 0 14 14" fill="none" xmlns="http://www.w3.org/2000/svg">
<path d="M3.0625 4.375C3.78737 4.375 4.375 3.78737 4.375 3.0625C4.375 2.33763 3.78737 1.75 3.0625 1.75C2.33763 1.75 1.75 2.33763 1.75 3.0625C1.75 3.78737 2.33763 4.375 3.0625 4.375Z" fill="#404040"/>
<path d="M5.35184 5.41881V12.2494H7.56209V8.87154C7.56209 7.98022 7.73685 7.11704 8.88859 7.11704C10.0245 7.11704 10.0386 8.13609 10.0386 8.92781V12.25H12.25V8.5041C12.25 6.66407 11.8372 5.25 9.59583 5.25C8.51973 5.25 7.79842 5.81664 7.50345 6.35289H7.47354V5.41881H5.35184ZM1.75 5.41881H3.96377V12.2494H1.75V5.41881Z" fill="#404040"/>
</svg>
