<svg width="14" height="14" viewBox="0 0 14 14" fill="none" xmlns="http://www.w3.org/2000/svg">
<g clip-path="url(#clip0_20_259)">
<path fill-rule="evenodd" clip-rule="evenodd" d="M1.53125 0C1.12514 0 0.735658 0.161328 0.448493 0.448493C0.161328 0.735658 0 1.12514 0 1.53125L0 12.4688C0 13.314 0.686 14 1.53125 14H12.4688C12.8749 14 13.2643 13.8387 13.5515 13.5515C13.8387 13.2643 14 12.8749 14 12.4688V1.53125C14 1.12514 13.8387 0.735658 13.5515 0.448493C13.2643 0.161328 12.8749 0 12.4688 0H1.53125ZM1.3125 1.53125C1.3125 1.47323 1.33555 1.41759 1.37657 1.37657C1.41759 1.33555 1.47323 1.3125 1.53125 1.3125H12.4688C12.5268 1.3125 12.5824 1.33555 12.6234 1.37657C12.6645 1.41759 12.6875 1.47323 12.6875 1.53125V12.4688C12.6875 12.5268 12.6645 12.5824 12.6234 12.6234C12.5824 12.6645 12.5268 12.6875 12.4688 12.6875H1.53125C1.47323 12.6875 1.41759 12.6645 1.37657 12.6234C1.33555 12.5824 1.3125 12.5268 1.3125 12.4688V1.53125ZM10.2812 2.625C10.1072 2.625 9.94028 2.69414 9.81721 2.81721C9.69414 2.94028 9.625 3.1072 9.625 3.28125V9.84375C9.625 10.0178 9.69414 10.1847 9.81721 10.3078C9.94028 10.4309 10.1072 10.5 10.2812 10.5C10.4553 10.5 10.6222 10.4309 10.7453 10.3078C10.8684 10.1847 10.9375 10.0178 10.9375 9.84375V3.28125C10.9375 3.1072 10.8684 2.94028 10.7453 2.81721C10.6222 2.69414 10.4553 2.625 10.2812 2.625ZM3.0625 3.28125C3.0625 3.1072 3.13164 2.94028 3.25471 2.81721C3.37778 2.69414 3.5447 2.625 3.71875 2.625C3.8928 2.625 4.05972 2.69414 4.18279 2.81721C4.30586 2.94028 4.375 3.1072 4.375 3.28125V8.09375C4.375 8.2678 4.30586 8.43472 4.18279 8.55779C4.05972 8.68086 3.8928 8.75 3.71875 8.75C3.5447 8.75 3.37778 8.68086 3.25471 8.55779C3.13164 8.43472 3.0625 8.2678 3.0625 8.09375V3.28125ZM7 2.625C6.82595 2.625 6.65903 2.69414 6.53596 2.81721C6.41289 2.94028 6.34375 3.1072 6.34375 3.28125V6.34375C6.34375 6.5178 6.41289 6.68472 6.53596 6.80779C6.65903 6.93086 6.82595 7 7 7C7.17405 7 7.34097 6.93086 7.46404 6.80779C7.58711 6.68472 7.65625 6.5178 7.65625 6.34375V3.28125C7.65625 3.1072 7.58711 2.94028 7.46404 2.81721C7.34097 2.69414 7.17405 2.625 7 2.625Z" fill="#404040"/>
</g>
<defs>
<clipPath id="clip0_20_259">
<rect width="14" height="14" fill="white"/>
</clipPath>
</defs>
</svg>
