<svg width="14" height="14" viewBox="0 0 14 14" fill="none" xmlns="http://www.w3.org/2000/svg">
<path d="M13.7918 2.87992C13.3047 3.09575 12.7814 3.24158 12.2313 3.3075C12.7989 2.96788 13.2236 2.43336 13.426 1.80367C12.8927 2.12041 12.3091 2.34336 11.7005 2.46283C11.2912 2.02584 10.7491 1.73619 10.1584 1.63886C9.5676 1.54153 8.96123 1.64196 8.43339 1.92456C7.90556 2.20717 7.48579 2.65613 7.23926 3.20174C6.99273 3.74736 6.93323 4.3591 7.07 4.942C5.98949 4.88775 4.93245 4.6069 3.9675 4.11769C3.00255 3.62849 2.15124 2.94184 1.46884 2.10233C1.2355 2.50483 1.10134 2.9715 1.10134 3.4685C1.10107 3.91591 1.21125 4.35647 1.4221 4.75109C1.63294 5.14571 1.93793 5.48219 2.31 5.73067C1.8785 5.71694 1.45651 5.60034 1.07917 5.39058V5.42558C1.07912 6.0531 1.29619 6.6613 1.69353 7.147C2.09086 7.63269 2.644 7.96596 3.25909 8.09025C2.85879 8.19858 2.43912 8.21454 2.03175 8.13692C2.20529 8.67686 2.54333 9.14902 2.99855 9.48729C3.45377 9.82557 4.00337 10.013 4.57042 10.0234C3.60782 10.7791 2.41902 11.189 1.19525 11.1872C0.978474 11.1872 0.76188 11.1746 0.546585 11.1493C1.78878 11.9479 3.23478 12.3718 4.71159 12.3702C9.71075 12.3702 12.4437 8.22967 12.4437 4.63867C12.4437 4.522 12.4408 4.40417 12.4355 4.2875C12.9671 3.90307 13.426 3.42702 13.7906 2.88167L13.7918 2.87992Z" fill="#404040"/>
</svg>
