<svg width="420" height="250" viewBox="0 0 420 250" fill="none" xmlns="http://www.w3.org/2000/svg">
<rect width="420" height="250" fill="white"/>
<ellipse cx="209.506" cy="97.5" rx="4.60126" ry="36.2013" transform="rotate(30 209.506 97.5)" fill="#2563EB"/>
<ellipse cx="219.538" cy="103.292" rx="3.93882" ry="34.3393" transform="rotate(30 219.538 103.292)" fill="#2563EB"/>
<ellipse cx="199.474" cy="91.7081" rx="3.93882" ry="34.3393" transform="rotate(30 199.474 91.7081)" fill="#2563EB"/>
<ellipse cx="228.376" cy="108.394" rx="3.22267" ry="28.8608" transform="rotate(30 228.376 108.394)" fill="#2563EB"/>
<ellipse cx="235.911" cy="112.745" rx="3.22267" ry="18.6199" transform="rotate(30 235.911 112.745)" fill="#2563EB"/>
<ellipse cx="183.101" cy="82.255" rx="3.22267" ry="18.6199" transform="rotate(30 183.101 82.255)" fill="#2563EB"/>
<ellipse cx="190.636" cy="86.6056" rx="3.22267" ry="28.8608" transform="rotate(30 190.636 86.6056)" fill="#2563EB"/>
<path d="M171.216 165.108C171 165.108 170.844 165.036 170.748 164.892C170.628 164.724 170.568 164.532 170.568 164.316C170.592 163.956 170.664 163.74 170.784 163.668C170.904 163.596 171.048 163.56 171.216 163.56C171.384 163.56 171.492 163.56 171.54 163.56C172.26 163.56 172.788 163.38 173.124 163.02C173.46 162.636 173.724 162.216 173.916 161.76C174.132 161.28 174.276 160.956 174.348 160.788L180.648 145.884C180.792 145.524 180.864 145.236 180.864 145.02C180.864 144.588 180.696 144.276 180.36 144.084C180.024 143.892 179.556 143.736 178.956 143.616C178.548 143.544 178.296 143.472 178.2 143.4C178.104 143.328 178.056 143.124 178.056 142.788C178.056 142.5 178.128 142.308 178.272 142.212C178.44 142.116 178.692 142.068 179.028 142.068C180.228 142.068 181.176 142.164 181.872 142.356C182.592 142.524 183.216 142.884 183.744 143.436C184.272 143.964 184.764 144.78 185.22 145.884L191.268 160.788C191.628 161.7 191.976 162.384 192.312 162.84C192.648 163.296 193.152 163.536 193.824 163.56H194.04C194.28 163.56 194.448 163.608 194.544 163.704C194.64 163.776 194.7 163.98 194.724 164.316C194.724 164.532 194.664 164.724 194.544 164.892C194.448 165.036 194.292 165.108 194.076 165.108C192.54 165.036 191.22 165 190.116 165C188.676 165 187.188 165.036 185.652 165.108C185.436 165.108 185.268 165.036 185.148 164.892C185.052 164.724 185.004 164.532 185.004 164.316C185.028 163.98 185.088 163.776 185.184 163.704C185.28 163.608 185.448 163.56 185.688 163.56C186.504 163.56 187.08 163.488 187.416 163.344C187.752 163.176 187.92 162.888 187.92 162.48C187.92 162.168 187.776 161.604 187.488 160.788L186.264 157.8H177.372C176.772 159.288 176.424 160.152 176.328 160.392C176.256 160.632 176.22 160.764 176.22 160.788C175.932 161.7 175.788 162.288 175.788 162.552C175.788 162.96 175.968 163.236 176.328 163.38C176.688 163.5 177.372 163.56 178.38 163.56H178.596C178.836 163.56 179.004 163.608 179.1 163.704C179.196 163.776 179.256 163.98 179.28 164.316C179.28 164.532 179.22 164.724 179.1 164.892C179.004 165.036 178.848 165.108 178.632 165.108C177.096 165.036 175.788 165 174.708 165C173.94 165 172.776 165.036 171.216 165.108ZM178.056 156.252H185.616L181.98 147H181.872L178.056 156.252ZM202.527 165.432C200.895 165.432 199.599 164.94 198.639 163.956C197.679 162.972 197.199 161.676 197.199 160.068V153.408C197.199 152.784 197.175 152.328 197.127 152.04C197.103 151.752 196.959 151.5 196.695 151.284C196.431 151.068 195.987 150.96 195.363 150.96C195.075 150.96 194.859 150.924 194.715 150.852C194.571 150.756 194.499 150.552 194.499 150.24C194.499 150.096 194.547 149.964 194.643 149.844C194.739 149.7 194.883 149.616 195.075 149.592C196.587 149.376 197.883 149.064 198.963 148.656C199.299 148.536 199.575 148.464 199.791 148.44H199.899C200.283 148.44 200.475 148.668 200.475 149.124V160.032C200.475 161.136 200.823 161.988 201.519 162.588C202.215 163.164 203.019 163.452 203.931 163.452C205.059 163.452 206.019 163.176 206.811 162.624C207.603 162.072 208.131 161.52 208.395 160.968V153.408C208.395 152.784 208.371 152.328 208.323 152.04C208.299 151.752 208.155 151.5 207.891 151.284C207.627 151.068 207.183 150.96 206.559 150.96C206.271 150.96 206.055 150.924 205.911 150.852C205.767 150.756 205.695 150.552 205.695 150.24C205.695 150.096 205.743 149.964 205.839 149.844C205.935 149.7 206.079 149.616 206.271 149.592C207.783 149.376 209.079 149.064 210.159 148.656C210.495 148.536 210.771 148.464 210.987 148.44H211.095C211.479 148.44 211.671 148.668 211.671 149.124V161.58C211.671 162.996 212.619 163.704 214.515 163.704C214.923 163.704 215.127 163.932 215.127 164.388C215.127 164.724 214.923 164.928 214.515 165L208.719 165.396C208.551 165.396 208.455 165.336 208.431 165.216C208.407 165.12 208.395 164.94 208.395 164.676V162.66H208.323C207.627 163.308 207.063 163.812 206.631 164.172C206.199 164.508 205.635 164.796 204.939 165.036C204.267 165.3 203.463 165.432 202.527 165.432ZM217.096 165.108C216.928 165.108 216.784 165.036 216.664 164.892C216.568 164.748 216.52 164.58 216.52 164.388C216.544 164.076 216.616 163.896 216.736 163.848C216.856 163.776 217.072 163.74 217.384 163.74C218.008 163.74 218.452 163.632 218.716 163.416C218.98 163.2 219.124 162.948 219.148 162.66C219.196 162.372 219.22 161.916 219.22 161.292V153.048C219.22 152.424 219.196 151.968 219.148 151.68C219.124 151.392 218.98 151.14 218.716 150.924C218.452 150.708 218.008 150.6 217.384 150.6C217.096 150.6 216.88 150.564 216.736 150.492C216.592 150.396 216.52 150.192 216.52 149.88C216.52 149.736 216.568 149.604 216.664 149.484C216.76 149.34 216.904 149.256 217.096 149.232C218.656 148.992 219.94 148.68 220.948 148.296C221.356 148.176 221.632 148.104 221.776 148.08H221.884C222.268 148.08 222.46 148.308 222.46 148.764V150.996H222.568C223.408 150.156 224.26 149.496 225.124 149.016C225.988 148.512 226.768 148.26 227.464 148.26C228.256 148.26 228.88 148.56 229.336 149.16C229.816 149.736 230.056 150.408 230.056 151.176C230.056 151.848 229.852 152.448 229.444 152.976C229.036 153.504 228.472 153.768 227.752 153.768C227.416 153.768 227.116 153.696 226.852 153.552C226.612 153.408 226.48 153.288 226.456 153.192C226.48 153.144 226.6 153 226.816 152.76C227.032 152.496 227.14 152.196 227.14 151.86C227.14 151.428 227.02 151.08 226.78 150.816C226.564 150.552 226.264 150.42 225.88 150.42C225.472 150.42 224.956 150.624 224.332 151.032C223.708 151.416 223.096 151.908 222.496 152.508V161.292C222.496 161.916 222.52 162.372 222.568 162.66C222.616 162.948 222.772 163.2 223.036 163.416C223.3 163.632 223.744 163.74 224.368 163.74H224.584C224.776 163.74 224.92 163.776 225.016 163.848C225.112 163.92 225.172 164.1 225.196 164.388C225.196 164.58 225.148 164.748 225.052 164.892C224.956 165.036 224.812 165.108 224.62 165.108C223.228 165.036 221.968 165 220.84 165C219.76 165 218.512 165.036 217.096 165.108ZM236.673 165.432C235.233 165.432 234.069 165.024 233.181 164.208C232.293 163.392 231.849 162.372 231.849 161.148C231.849 159.636 232.353 158.508 233.361 157.764C234.369 156.996 235.569 156.504 236.961 156.288C238.353 156.048 240.153 155.868 242.361 155.748V152.904C242.361 151.728 242.061 150.84 241.461 150.24C240.885 149.616 239.949 149.304 238.653 149.304C237.909 149.304 237.261 149.532 236.709 149.988C236.157 150.444 235.881 151.056 235.881 151.824C235.881 152.208 235.965 152.532 236.133 152.796C236.325 153.036 236.517 153.24 236.709 153.408C236.925 153.576 237.033 153.672 237.033 153.696C237.033 153.84 236.877 154.032 236.565 154.272C236.277 154.488 235.917 154.596 235.485 154.596C234.765 154.596 234.189 154.332 233.757 153.804C233.349 153.276 233.145 152.652 233.145 151.932C233.145 150.684 233.697 149.76 234.801 149.16C235.929 148.56 237.285 148.26 238.869 148.26C240.837 148.26 242.433 148.632 243.657 149.376C244.905 150.12 245.529 151.5 245.529 153.516V161.904C245.553 162.408 245.709 162.888 245.997 163.344C246.285 163.8 246.753 164.028 247.401 164.028C247.593 164.028 247.725 164.064 247.797 164.136C247.893 164.208 247.941 164.364 247.941 164.604C247.941 164.892 247.713 165.096 247.257 165.216C246.825 165.36 246.393 165.432 245.961 165.432C245.049 165.432 244.245 165.168 243.549 164.64C242.853 164.112 242.457 163.404 242.361 162.516C241.857 163.452 241.077 164.172 240.021 164.676C238.989 165.18 237.873 165.432 236.673 165.432ZM237.825 163.488C238.641 163.488 239.397 163.284 240.093 162.876C240.789 162.468 241.341 161.916 241.749 161.22C242.157 160.5 242.361 159.708 242.361 158.844V156.792C239.841 156.984 238.065 157.392 237.033 158.016C236.001 158.64 235.485 159.648 235.485 161.04C235.485 162.672 236.265 163.488 237.825 163.488Z" fill="black"/>
<path d="M90.172 184.098C89.528 184.098 88.9493 183.986 88.436 183.762C87.932 183.529 87.5353 183.211 87.246 182.81C86.9567 182.399 86.8073 181.928 86.798 181.396H88.156C88.2027 181.853 88.3893 182.241 88.716 182.558C89.052 182.866 89.5373 183.02 90.172 183.02C90.7787 183.02 91.2547 182.871 91.6 182.572C91.9547 182.264 92.132 181.872 92.132 181.396C92.132 181.023 92.0293 180.719 91.824 180.486C91.6187 180.253 91.362 180.075 91.054 179.954C90.746 179.833 90.3307 179.702 89.808 179.562C89.164 179.394 88.646 179.226 88.254 179.058C87.8713 178.89 87.54 178.629 87.26 178.274C86.9893 177.91 86.854 177.425 86.854 176.818C86.854 176.286 86.9893 175.815 87.26 175.404C87.5307 174.993 87.9087 174.676 88.394 174.452C88.8887 174.228 89.4533 174.116 90.088 174.116C91.0027 174.116 91.7493 174.345 92.328 174.802C92.916 175.259 93.2473 175.866 93.322 176.622H91.922C91.8753 176.249 91.6793 175.922 91.334 175.642C90.9887 175.353 90.5313 175.208 89.962 175.208C89.43 175.208 88.996 175.348 88.66 175.628C88.324 175.899 88.156 176.281 88.156 176.776C88.156 177.131 88.254 177.42 88.45 177.644C88.6553 177.868 88.9027 178.041 89.192 178.162C89.4907 178.274 89.906 178.405 90.438 178.554C91.082 178.731 91.6 178.909 91.992 179.086C92.384 179.254 92.72 179.52 93 179.884C93.28 180.239 93.42 180.724 93.42 181.34C93.42 181.816 93.294 182.264 93.042 182.684C92.79 183.104 92.4167 183.445 91.922 183.706C91.4273 183.967 90.844 184.098 90.172 184.098ZM102.295 179.87C102.295 180.113 102.281 180.369 102.253 180.64H96.1208C96.1675 181.396 96.4241 181.989 96.8908 182.418C97.3668 182.838 97.9408 183.048 98.6128 183.048C99.1635 183.048 99.6208 182.922 99.9848 182.67C100.358 182.409 100.619 182.063 100.769 181.634H102.141C101.935 182.371 101.525 182.973 100.909 183.44C100.293 183.897 99.5275 184.126 98.6128 184.126C97.8848 184.126 97.2315 183.963 96.6528 183.636C96.0835 183.309 95.6355 182.847 95.3088 182.25C94.9821 181.643 94.8188 180.943 94.8188 180.15C94.8188 179.357 94.9775 178.661 95.2948 178.064C95.6121 177.467 96.0555 177.009 96.6248 176.692C97.2035 176.365 97.8661 176.202 98.6128 176.202C99.3408 176.202 99.9848 176.361 100.545 176.678C101.105 176.995 101.534 177.434 101.833 177.994C102.141 178.545 102.295 179.17 102.295 179.87ZM100.979 179.604C100.979 179.119 100.871 178.703 100.657 178.358C100.442 178.003 100.148 177.737 99.7748 177.56C99.4108 177.373 99.0048 177.28 98.5568 177.28C97.9128 177.28 97.3621 177.485 96.9048 177.896C96.4568 178.307 96.2001 178.876 96.1348 179.604H100.979ZM110.976 179.87C110.976 180.113 110.962 180.369 110.934 180.64H104.802C104.849 181.396 105.106 181.989 105.572 182.418C106.048 182.838 106.622 183.048 107.294 183.048C107.845 183.048 108.302 182.922 108.666 182.67C109.04 182.409 109.301 182.063 109.45 181.634H110.822C110.617 182.371 110.206 182.973 109.59 183.44C108.974 183.897 108.209 184.126 107.294 184.126C106.566 184.126 105.913 183.963 105.334 183.636C104.765 183.309 104.317 182.847 103.99 182.25C103.664 181.643 103.5 180.943 103.5 180.15C103.5 179.357 103.659 178.661 103.976 178.064C104.294 177.467 104.737 177.009 105.306 176.692C105.885 176.365 106.548 176.202 107.294 176.202C108.022 176.202 108.666 176.361 109.226 176.678C109.786 176.995 110.216 177.434 110.514 177.994C110.822 178.545 110.976 179.17 110.976 179.87ZM109.66 179.604C109.66 179.119 109.553 178.703 109.338 178.358C109.124 178.003 108.83 177.737 108.456 177.56C108.092 177.373 107.686 177.28 107.238 177.28C106.594 177.28 106.044 177.485 105.586 177.896C105.138 178.307 104.882 178.876 104.816 179.604H109.66ZM122.999 176.328L118.379 187.612H117.062L118.575 183.916L115.481 176.328H116.895L119.303 182.544L121.683 176.328H122.999ZM127.625 184.126C126.907 184.126 126.253 183.963 125.665 183.636C125.087 183.309 124.629 182.847 124.293 182.25C123.967 181.643 123.803 180.943 123.803 180.15C123.803 179.366 123.971 178.675 124.307 178.078C124.653 177.471 125.119 177.009 125.707 176.692C126.295 176.365 126.953 176.202 127.681 176.202C128.409 176.202 129.067 176.365 129.655 176.692C130.243 177.009 130.705 177.467 131.041 178.064C131.387 178.661 131.559 179.357 131.559 180.15C131.559 180.943 131.382 181.643 131.027 182.25C130.682 182.847 130.211 183.309 129.613 183.636C129.016 183.963 128.353 184.126 127.625 184.126ZM127.625 183.006C128.083 183.006 128.512 182.899 128.913 182.684C129.315 182.469 129.637 182.147 129.879 181.718C130.131 181.289 130.257 180.766 130.257 180.15C130.257 179.534 130.136 179.011 129.893 178.582C129.651 178.153 129.333 177.835 128.941 177.63C128.549 177.415 128.125 177.308 127.667 177.308C127.201 177.308 126.771 177.415 126.379 177.63C125.997 177.835 125.689 178.153 125.455 178.582C125.222 179.011 125.105 179.534 125.105 180.15C125.105 180.775 125.217 181.303 125.441 181.732C125.675 182.161 125.983 182.483 126.365 182.698C126.748 182.903 127.168 183.006 127.625 183.006ZM140.038 176.328V184H138.764V182.866C138.522 183.258 138.181 183.566 137.742 183.79C137.313 184.005 136.837 184.112 136.314 184.112C135.717 184.112 135.18 183.991 134.704 183.748C134.228 183.496 133.85 183.123 133.57 182.628C133.3 182.133 133.164 181.531 133.164 180.822V176.328H134.424V180.654C134.424 181.41 134.616 181.993 134.998 182.404C135.381 182.805 135.904 183.006 136.566 183.006C137.248 183.006 137.784 182.796 138.176 182.376C138.568 181.956 138.764 181.345 138.764 180.542V176.328H140.038ZM143.463 177.574C143.687 177.135 144.005 176.795 144.415 176.552C144.835 176.309 145.344 176.188 145.941 176.188V177.504H145.605C144.177 177.504 143.463 178.279 143.463 179.828V184H142.189V176.328H143.463V177.574ZM160.37 176.188C160.968 176.188 161.5 176.314 161.966 176.566C162.433 176.809 162.802 177.177 163.072 177.672C163.343 178.167 163.478 178.769 163.478 179.478V184H162.218V179.66C162.218 178.895 162.027 178.311 161.644 177.91C161.271 177.499 160.762 177.294 160.118 177.294C159.456 177.294 158.928 177.509 158.536 177.938C158.144 178.358 157.948 178.969 157.948 179.772V184H156.688V179.66C156.688 178.895 156.497 178.311 156.114 177.91C155.741 177.499 155.232 177.294 154.588 177.294C153.926 177.294 153.398 177.509 153.006 177.938C152.614 178.358 152.418 178.969 152.418 179.772V184H151.144V176.328H152.418V177.434C152.67 177.033 153.006 176.725 153.426 176.51C153.856 176.295 154.327 176.188 154.84 176.188C155.484 176.188 156.054 176.333 156.548 176.622C157.043 176.911 157.412 177.336 157.654 177.896C157.869 177.355 158.224 176.935 158.718 176.636C159.213 176.337 159.764 176.188 160.37 176.188ZM168.914 184.126C168.196 184.126 167.542 183.963 166.954 183.636C166.376 183.309 165.918 182.847 165.582 182.25C165.256 181.643 165.092 180.943 165.092 180.15C165.092 179.366 165.26 178.675 165.596 178.078C165.942 177.471 166.408 177.009 166.996 176.692C167.584 176.365 168.242 176.202 168.97 176.202C169.698 176.202 170.356 176.365 170.944 176.692C171.532 177.009 171.994 177.467 172.33 178.064C172.676 178.661 172.848 179.357 172.848 180.15C172.848 180.943 172.671 181.643 172.316 182.25C171.971 182.847 171.5 183.309 170.902 183.636C170.305 183.963 169.642 184.126 168.914 184.126ZM168.914 183.006C169.372 183.006 169.801 182.899 170.202 182.684C170.604 182.469 170.926 182.147 171.168 181.718C171.42 181.289 171.546 180.766 171.546 180.15C171.546 179.534 171.425 179.011 171.182 178.582C170.94 178.153 170.622 177.835 170.23 177.63C169.838 177.415 169.414 177.308 168.956 177.308C168.49 177.308 168.06 177.415 167.668 177.63C167.286 177.835 166.978 178.153 166.744 178.582C166.511 179.011 166.394 179.534 166.394 180.15C166.394 180.775 166.506 181.303 166.73 181.732C166.964 182.161 167.272 182.483 167.654 182.698C168.037 182.903 168.457 183.006 168.914 183.006ZM177.869 184.126C177.151 184.126 176.497 183.963 175.909 183.636C175.331 183.309 174.873 182.847 174.537 182.25C174.211 181.643 174.047 180.943 174.047 180.15C174.047 179.366 174.215 178.675 174.551 178.078C174.897 177.471 175.363 177.009 175.951 176.692C176.539 176.365 177.197 176.202 177.925 176.202C178.653 176.202 179.311 176.365 179.899 176.692C180.487 177.009 180.949 177.467 181.285 178.064C181.631 178.661 181.803 179.357 181.803 180.15C181.803 180.943 181.626 181.643 181.271 182.25C180.926 182.847 180.455 183.309 179.857 183.636C179.26 183.963 178.597 184.126 177.869 184.126ZM177.869 183.006C178.327 183.006 178.756 182.899 179.157 182.684C179.559 182.469 179.881 182.147 180.123 181.718C180.375 181.289 180.501 180.766 180.501 180.15C180.501 179.534 180.38 179.011 180.137 178.582C179.895 178.153 179.577 177.835 179.185 177.63C178.793 177.415 178.369 177.308 177.911 177.308C177.445 177.308 177.015 177.415 176.623 177.63C176.241 177.835 175.933 178.153 175.699 178.582C175.466 179.011 175.349 179.534 175.349 180.15C175.349 180.775 175.461 181.303 175.685 181.732C175.919 182.161 176.227 182.483 176.609 182.698C176.992 182.903 177.412 183.006 177.869 183.006ZM183.002 180.136C183.002 179.352 183.161 178.666 183.478 178.078C183.796 177.481 184.23 177.019 184.78 176.692C185.34 176.365 185.966 176.202 186.656 176.202C187.254 176.202 187.809 176.342 188.322 176.622C188.836 176.893 189.228 177.252 189.498 177.7V173.64H190.786V184H189.498V182.558C189.246 183.015 188.873 183.393 188.378 183.692C187.884 183.981 187.305 184.126 186.642 184.126C185.961 184.126 185.34 183.958 184.78 183.622C184.23 183.286 183.796 182.815 183.478 182.208C183.161 181.601 183.002 180.911 183.002 180.136ZM189.498 180.15C189.498 179.571 189.382 179.067 189.148 178.638C188.915 178.209 188.598 177.882 188.196 177.658C187.804 177.425 187.37 177.308 186.894 177.308C186.418 177.308 185.984 177.42 185.592 177.644C185.2 177.868 184.888 178.195 184.654 178.624C184.421 179.053 184.304 179.557 184.304 180.136C184.304 180.724 184.421 181.237 184.654 181.676C184.888 182.105 185.2 182.437 185.592 182.67C185.984 182.894 186.418 183.006 186.894 183.006C187.37 183.006 187.804 182.894 188.196 182.67C188.598 182.437 188.915 182.105 189.148 181.676C189.382 181.237 189.498 180.729 189.498 180.15ZM197.33 175.082C197.087 175.082 196.882 174.998 196.714 174.83C196.546 174.662 196.462 174.457 196.462 174.214C196.462 173.971 196.546 173.766 196.714 173.598C196.882 173.43 197.087 173.346 197.33 173.346C197.563 173.346 197.759 173.43 197.918 173.598C198.086 173.766 198.17 173.971 198.17 174.214C198.17 174.457 198.086 174.662 197.918 174.83C197.759 174.998 197.563 175.082 197.33 175.082ZM197.946 176.328V184H196.672V176.328H197.946ZM203.855 176.188C204.788 176.188 205.544 176.473 206.123 177.042C206.702 177.602 206.991 178.414 206.991 179.478V184H205.731V179.66C205.731 178.895 205.54 178.311 205.157 177.91C204.774 177.499 204.252 177.294 203.589 177.294C202.917 177.294 202.38 177.504 201.979 177.924C201.587 178.344 201.391 178.955 201.391 179.758V184H200.117V176.328H201.391V177.42C201.643 177.028 201.984 176.725 202.413 176.51C202.852 176.295 203.332 176.188 203.855 176.188ZM212.329 180.136C212.329 179.352 212.487 178.666 212.805 178.078C213.122 177.481 213.556 177.019 214.107 176.692C214.667 176.365 215.287 176.202 215.969 176.202C216.641 176.202 217.224 176.347 217.719 176.636C218.213 176.925 218.582 177.289 218.825 177.728V176.328H220.113V184H218.825V182.572C218.573 183.02 218.195 183.393 217.691 183.692C217.196 183.981 216.617 184.126 215.955 184.126C215.273 184.126 214.657 183.958 214.107 183.622C213.556 183.286 213.122 182.815 212.805 182.208C212.487 181.601 212.329 180.911 212.329 180.136ZM218.825 180.15C218.825 179.571 218.708 179.067 218.475 178.638C218.241 178.209 217.924 177.882 217.523 177.658C217.131 177.425 216.697 177.308 216.221 177.308C215.745 177.308 215.311 177.42 214.919 177.644C214.527 177.868 214.214 178.195 213.981 178.624C213.747 179.053 213.631 179.557 213.631 180.136C213.631 180.724 213.747 181.237 213.981 181.676C214.214 182.105 214.527 182.437 214.919 182.67C215.311 182.894 215.745 183.006 216.221 183.006C216.697 183.006 217.131 182.894 217.523 182.67C217.924 182.437 218.241 182.105 218.475 181.676C218.708 181.237 218.825 180.729 218.825 180.15ZM236.218 176.328L233.824 184H232.508L230.66 177.91L228.812 184H227.496L225.088 176.328H226.39L228.154 182.768L230.058 176.328H231.36L233.222 182.782L234.958 176.328H236.218ZM241.29 176.188C241.869 176.188 242.392 176.314 242.858 176.566C243.325 176.809 243.689 177.177 243.95 177.672C244.221 178.167 244.356 178.769 244.356 179.478V184H243.096V179.66C243.096 178.895 242.905 178.311 242.522 177.91C242.14 177.499 241.617 177.294 240.954 177.294C240.282 177.294 239.746 177.504 239.344 177.924C238.952 178.344 238.756 178.955 238.756 179.758V184H237.482V173.64H238.756V177.42C239.008 177.028 239.354 176.725 239.792 176.51C240.24 176.295 240.74 176.188 241.29 176.188ZM249.783 184.126C249.065 184.126 248.411 183.963 247.823 183.636C247.245 183.309 246.787 182.847 246.451 182.25C246.125 181.643 245.961 180.943 245.961 180.15C245.961 179.366 246.129 178.675 246.465 178.078C246.811 177.471 247.277 177.009 247.865 176.692C248.453 176.365 249.111 176.202 249.839 176.202C250.567 176.202 251.225 176.365 251.813 176.692C252.401 177.009 252.863 177.467 253.199 178.064C253.545 178.661 253.717 179.357 253.717 180.15C253.717 180.943 253.54 181.643 253.185 182.25C252.84 182.847 252.369 183.309 251.771 183.636C251.174 183.963 250.511 184.126 249.783 184.126ZM249.783 183.006C250.241 183.006 250.67 182.899 251.071 182.684C251.473 182.469 251.795 182.147 252.037 181.718C252.289 181.289 252.415 180.766 252.415 180.15C252.415 179.534 252.294 179.011 252.051 178.582C251.809 178.153 251.491 177.835 251.099 177.63C250.707 177.415 250.283 177.308 249.825 177.308C249.359 177.308 248.929 177.415 248.537 177.63C248.155 177.835 247.847 178.153 247.613 178.582C247.38 179.011 247.263 179.534 247.263 180.15C247.263 180.775 247.375 181.303 247.599 181.732C247.833 182.161 248.141 182.483 248.523 182.698C248.906 182.903 249.326 183.006 249.783 183.006ZM256.666 173.64V184H255.392V173.64H256.666ZM265.838 179.87C265.838 180.113 265.824 180.369 265.796 180.64H259.664C259.71 181.396 259.967 181.989 260.434 182.418C260.91 182.838 261.484 183.048 262.156 183.048C262.706 183.048 263.164 182.922 263.528 182.67C263.901 182.409 264.162 182.063 264.312 181.634H265.684C265.478 182.371 265.068 182.973 264.452 183.44C263.836 183.897 263.07 184.126 262.156 184.126C261.428 184.126 260.774 183.963 260.196 183.636C259.626 183.309 259.178 182.847 258.852 182.25C258.525 181.643 258.362 180.943 258.362 180.15C258.362 179.357 258.52 178.661 258.838 178.064C259.155 177.467 259.598 177.009 260.168 176.692C260.746 176.365 261.409 176.202 262.156 176.202C262.884 176.202 263.528 176.361 264.088 176.678C264.648 176.995 265.077 177.434 265.376 177.994C265.684 178.545 265.838 179.17 265.838 179.87ZM264.522 179.604C264.522 179.119 264.414 178.703 264.2 178.358C263.985 178.003 263.691 177.737 263.318 177.56C262.954 177.373 262.548 177.28 262.1 177.28C261.456 177.28 260.905 177.485 260.448 177.896C260 178.307 259.743 178.876 259.678 179.604H264.522ZM274.99 176.188C275.923 176.188 276.679 176.473 277.258 177.042C277.836 177.602 278.126 178.414 278.126 179.478V184H276.866V179.66C276.866 178.895 276.674 178.311 276.292 177.91C275.909 177.499 275.386 177.294 274.724 177.294C274.052 177.294 273.515 177.504 273.114 177.924C272.722 178.344 272.526 178.955 272.526 179.758V184H271.252V176.328H272.526V177.42C272.778 177.028 273.118 176.725 273.548 176.51C273.986 176.295 274.467 176.188 274.99 176.188ZM287.207 179.87C287.207 180.113 287.193 180.369 287.165 180.64H281.033C281.08 181.396 281.336 181.989 281.803 182.418C282.279 182.838 282.853 183.048 283.525 183.048C284.076 183.048 284.533 182.922 284.897 182.67C285.27 182.409 285.532 182.063 285.681 181.634H287.053C286.848 182.371 286.437 182.973 285.821 183.44C285.205 183.897 284.44 184.126 283.525 184.126C282.797 184.126 282.144 183.963 281.565 183.636C280.996 183.309 280.548 182.847 280.221 182.25C279.894 181.643 279.731 180.943 279.731 180.15C279.731 179.357 279.89 178.661 280.207 178.064C280.524 177.467 280.968 177.009 281.537 176.692C282.116 176.365 282.778 176.202 283.525 176.202C284.253 176.202 284.897 176.361 285.457 176.678C286.017 176.995 286.446 177.434 286.745 177.994C287.053 178.545 287.207 179.17 287.207 179.87ZM285.891 179.604C285.891 179.119 285.784 178.703 285.569 178.358C285.354 178.003 285.06 177.737 284.687 177.56C284.323 177.373 283.917 177.28 283.469 177.28C282.825 177.28 282.274 177.485 281.817 177.896C281.369 178.307 281.112 178.876 281.047 179.604H285.891ZM299.109 176.328L296.715 184H295.399L293.551 177.91L291.703 184H290.387L287.979 176.328H289.281L291.045 182.768L292.949 176.328H294.251L296.113 182.782L297.849 176.328H299.109ZM305.379 173.64V184H304.105V173.64H305.379ZM308.209 175.082C307.966 175.082 307.761 174.998 307.593 174.83C307.425 174.662 307.341 174.457 307.341 174.214C307.341 173.971 307.425 173.766 307.593 173.598C307.761 173.43 307.966 173.346 308.209 173.346C308.442 173.346 308.638 173.43 308.797 173.598C308.965 173.766 309.049 173.971 309.049 174.214C309.049 174.457 308.965 174.662 308.797 174.83C308.638 174.998 308.442 175.082 308.209 175.082ZM308.825 176.328V184H307.551V176.328H308.825ZM314.16 176.202C314.823 176.202 315.401 176.347 315.896 176.636C316.4 176.925 316.773 177.289 317.016 177.728V176.328H318.304V184.168C318.304 184.868 318.155 185.489 317.856 186.03C317.557 186.581 317.128 187.01 316.568 187.318C316.017 187.626 315.373 187.78 314.636 187.78C313.628 187.78 312.788 187.542 312.116 187.066C311.444 186.59 311.047 185.941 310.926 185.12H312.186C312.326 185.587 312.615 185.96 313.054 186.24C313.493 186.529 314.02 186.674 314.636 186.674C315.336 186.674 315.905 186.455 316.344 186.016C316.792 185.577 317.016 184.961 317.016 184.168V182.558C316.764 183.006 316.391 183.379 315.896 183.678C315.401 183.977 314.823 184.126 314.16 184.126C313.479 184.126 312.858 183.958 312.298 183.622C311.747 183.286 311.313 182.815 310.996 182.208C310.679 181.601 310.52 180.911 310.52 180.136C310.52 179.352 310.679 178.666 310.996 178.078C311.313 177.481 311.747 177.019 312.298 176.692C312.858 176.365 313.479 176.202 314.16 176.202ZM317.016 180.15C317.016 179.571 316.899 179.067 316.666 178.638C316.433 178.209 316.115 177.882 315.714 177.658C315.322 177.425 314.888 177.308 314.412 177.308C313.936 177.308 313.502 177.42 313.11 177.644C312.718 177.868 312.405 178.195 312.172 178.624C311.939 179.053 311.822 179.557 311.822 180.136C311.822 180.724 311.939 181.237 312.172 181.676C312.405 182.105 312.718 182.437 313.11 182.67C313.502 182.894 313.936 183.006 314.412 183.006C314.888 183.006 315.322 182.894 315.714 182.67C316.115 182.437 316.433 182.105 316.666 181.676C316.899 181.237 317.016 180.729 317.016 180.15ZM324.265 176.188C324.844 176.188 325.366 176.314 325.833 176.566C326.3 176.809 326.664 177.177 326.925 177.672C327.196 178.167 327.331 178.769 327.331 179.478V184H326.071V179.66C326.071 178.895 325.88 178.311 325.497 177.91C325.114 177.499 324.592 177.294 323.929 177.294C323.257 177.294 322.72 177.504 322.319 177.924C321.927 178.344 321.731 178.955 321.731 179.758V184H320.457V173.64H321.731V177.42C321.983 177.028 322.328 176.725 322.767 176.51C323.215 176.295 323.714 176.188 324.265 176.188ZM330.966 177.378V181.9C330.966 182.273 331.045 182.539 331.204 182.698C331.363 182.847 331.638 182.922 332.03 182.922H332.968V184H331.82C331.111 184 330.579 183.837 330.224 183.51C329.869 183.183 329.692 182.647 329.692 181.9V177.378H328.698V176.328H329.692V174.396H330.966V176.328H332.968V177.378H330.966Z" fill="#626262"/>
</svg>
